<svg width="25" height="24" viewBox="0 0 25 24" fill="none" xmlns="http://www.w3.org/2000/svg">
<g clip-path="url(#clip0_301_869)">
<path d="M2.1748 15C2.1748 15 2.1748 12 4.18646 12C4.87042 12 5.65496 11.95 6.47974 11.82C7.4051 12.54 8.71267 13 10.2214 13H10.4729L8.77302 11.29C9.12506 11.18 9.46704 11.05 9.80902 10.91L11.7301 12.82C12.1224 12.74 12.4845 12.63 12.8164 12.5L10.7746 10.45C11.0764 10.28 11.368 10.11 11.6597 9.90998L13.7418 12C14.0435 11.79 14.2849 11.56 14.4962 11.32L12.4543 9.28998C12.6957 9.06998 12.9371 8.82998 13.1584 8.57998L15.0393 10.45C15.16 10.14 15.2505 9.82998 15.2505 9.49998C15.2505 8.64998 14.7979 7.88998 14.0838 7.27998C14.1341 7.18998 14.1944 7.09998 14.2447 6.99998L15.7836 6.22998C16.6386 7.16998 18.4088 7.83998 20.5311 7.96998L20.5814 7.99998H21.2855C21.2855 7.99998 22.2913 8.99998 22.2913 12.5C22.2913 13.07 22.2913 13.57 22.2511 14H19.2738C18.1674 14 16.8397 14.26 15.5523 14.5C14.3654 14.76 13.1383 15 12.2331 15H2.1748ZM21.2855 17C21.2855 17 21.8689 17 22.1505 15H19.2738C17.2622 15 14.2447 16 12.2331 16H2.45644C2.79842 16.6 3.44214 17 4.18646 17H21.2855Z" fill="white"/>
</g>
<defs>
<clipPath id="clip0_301_869">
<rect width="24.1398" height="24" fill="white" transform="translate(0.163086)"/>
</clipPath>
</defs>
</svg>
