<svg width="25" height="25" viewBox="0 0 25 25" fill="none" xmlns="http://www.w3.org/2000/svg">
<path d="M11.4769 1.92151L13.8669 5.34151C13.1269 5.07151 12.3169 4.92151 11.4769 4.92151C10.6369 4.92151 9.82689 5.07151 9.08689 5.34151L11.4769 1.92151ZM2.81689 6.92151L6.97689 6.57151C6.37689 7.08151 5.83689 7.70151 5.41689 8.42151C4.97689 9.16151 4.72689 9.92151 4.58689 10.7115L2.81689 6.92151ZM2.83689 16.9215L4.59689 13.1515C4.73689 13.9215 5.00689 14.7015 5.42689 15.4215C5.84689 16.1615 6.38689 16.7815 6.97689 17.2915L2.83689 16.9215ZM20.1269 6.92151L18.3569 10.7115C18.2169 9.92151 17.9469 9.15151 17.5269 8.42151C17.1069 7.70151 16.5769 7.07151 15.9769 6.56151L20.1269 6.92151ZM23.4769 13.9215H21.4769C21.4769 15.9715 20.6969 18.0215 19.1369 19.5815C17.5669 21.1515 15.5269 21.9215 13.4769 21.9215V23.9215C16.0369 23.9215 18.5969 22.9215 20.5469 20.9915C22.4969 19.0615 23.4769 16.4815 23.4769 13.9215ZM19.4769 13.9215H17.4769C17.4769 14.9215 17.0869 15.9715 16.3069 16.7515C15.5269 17.5315 14.4769 17.9215 13.4769 17.9215V19.9215C15.0169 19.9215 16.5569 19.3315 17.7269 18.1615C18.8869 17.0015 19.4769 15.4615 19.4769 13.9215ZM11.4769 8.92151C13.1269 8.92151 14.4769 10.2715 14.4769 11.9215C14.4769 13.5715 13.1269 14.9215 11.4769 14.9215C9.82689 14.9215 8.47689 13.5715 8.47689 11.9215C8.47689 10.2715 9.82689 8.92151 11.4769 8.92151ZM11.4769 6.92151C8.71689 6.92151 6.47689 9.16151 6.47689 11.9215C6.47689 14.6815 8.71689 16.9215 11.4769 16.9215C14.2369 16.9215 16.4769 14.6815 16.4769 11.9215C16.4769 9.16151 14.2369 6.92151 11.4769 6.92151Z" fill="white"/>
</svg>
