<svg width="24" height="24" viewBox="0 0 24 24" fill="none" xmlns="http://www.w3.org/2000/svg">
<path d="M19 5.00004C17.89 5.00004 17 5.89004 17 7.00004V13.76C16.36 14.33 16 15.15 16 16C16 17.66 17.34 19 19 19C20.66 19 22 17.66 22 16C22 15.15 21.64 14.33 21 13.77V7.00004C21 5.89004 20.11 5.00004 19 5.00004ZM19 6.00004C19.55 6.00004 20 6.45004 20 7.00004V8.00004H18V7.00004C18 6.45004 18.45 6.00004 19 6.00004ZM8 3.54004L7.25 4.38004C7.25 4.38004 5.97 5.83004 4.68 7.71004C3.39 9.59004 2 11.84 2 14C2 17.31 4.69 20 8 20C11.31 20 14 17.31 14 14C14 11.84 12.61 9.59004 11.32 7.71004C10.03 5.83004 8.75 4.38004 8.75 4.38004L8 3.54004ZM8 6.67004C8.44 7.19004 8.84 7.62004 9.68 8.84004C10.89 10.6 12 12.84 12 14C12 16.22 10.22 18 8 18C5.78 18 4 16.22 4 14C4 12.84 5.11 10.6 6.32 8.84004C7.16 7.62004 7.56 7.19004 8 6.67004Z" fill="white"/>
</svg>
