<svg width="25" height="25" viewBox="0 0 25 25" fill="none" xmlns="http://www.w3.org/2000/svg">
<path d="M22.8574 21.735L3.13742 2.005L1.85742 3.275L8.39742 9.815C7.48742 11.305 6.74742 12.925 6.74742 14.505C6.74742 17.815 9.43742 20.505 12.7474 20.505C14.4874 20.505 16.0474 19.775 17.1474 18.565L21.5874 23.005L22.8574 21.735ZM12.7474 18.505C10.5274 18.505 8.74742 16.725 8.74742 14.505C8.74742 13.775 9.24742 12.545 9.88742 11.305L15.7474 17.155C15.0074 17.985 13.9474 18.505 12.7474 18.505ZM11.8874 8.215L10.4574 6.775C11.3174 5.655 11.9974 4.885 11.9974 4.885L12.7474 4.045L13.4974 4.885C13.4974 4.885 14.7774 6.335 16.0674 8.215C17.3574 10.095 18.7474 12.345 18.7474 14.505C18.7474 14.685 18.7474 14.865 18.7174 15.045L16.2074 12.535C15.7474 11.505 15.1174 10.345 14.4274 9.345C13.5874 8.125 13.1874 7.695 12.7474 7.175C12.4774 7.485 12.2474 7.775 11.8874 8.215Z" fill="white"/>
</svg>
