<svg width="36" height="36" viewBox="0 0 36 36" fill="none" xmlns="http://www.w3.org/2000/svg">
<path d="M9.75 30C7.47 30 5.525 29.215 3.915 27.645C2.305 26.065 1.5 24.14 1.5 21.87C1.5 19.92 2.085 18.18 3.255 16.65C4.435 15.12 5.975 14.145 7.875 13.725C8.505 11.425 9.755 9.565 11.625 8.145C13.505 6.715 15.63 6 18 6C20.93 6 23.41 7.02 25.44 9.06C27.48 11.09 28.5 13.57 28.5 16.5C30.23 16.7 31.66 17.45 32.79 18.75C33.93 20.03 34.5 21.53 34.5 23.25C34.5 25.13 33.845 26.725 32.535 28.035C31.225 29.345 29.63 30 27.75 30M9.75 27H27.75C28.8 27 29.685 26.635 30.405 25.905C31.135 25.185 31.5 24.3 31.5 23.25C31.5 22.2 31.135 21.315 30.405 20.595C29.685 19.865 28.8 19.5 27.75 19.5H25.5V16.5C25.5 14.43 24.77 12.66 23.31 11.19C21.85 9.73 20.08 9 18 9C15.93 9 14.16 9.73 12.69 11.19C11.23 12.66 10.5 14.43 10.5 16.5H9.75C8.3 16.5 7.065 17.015 6.045 18.045C5.015 19.065 4.5 20.3 4.5 21.75C4.5 23.2 5.015 24.45 6.045 25.5C7.065 26.5 8.3 27 9.75 27Z" fill="white"/>
</svg>
