<svg width="60" height="60" viewBox="0 0 60 60" fill="none" xmlns="http://www.w3.org/2000/svg">
<path d="M32.5 5.07495C44.325 6.24995 53.75 15.625 54.875 27.5C56.25 41.25 46.25 53.45 32.5 54.825V49.825C41.6 48.75 48.75 41.525 49.9 32.425C51.25 21.45 43.475 11.475 32.5 10.125V5.12495V5.07495ZM27.5 5.14995V10.15C23.925 10.65 20.55 12.1 17.75 14.35L14.175 10.65C17.975 7.49995 22.625 5.62495 27.5 5.14995ZM10.65 14.175L14.225 17.75C12 20.575 10.6 23.95 10.125 27.5H5.125C5.625 22.6 7.5 17.975 10.65 14.175ZM5.15 32.5H10.15C10.6 36.05 12.025 39.4249 14.225 42.25L10.675 45.825C7.575 42.0249 5.65 37.4 5.15 32.5ZM17.75 45.9249C20.575 48.125 23.95 49.5499 27.5 50V55C22.6 54.4749 17.95 52.5 14.175 49.3499L17.75 45.9249ZM30 18.75L18.75 30H27.5V40H32.5V30H41.25L30 18.75Z" fill="url(#paint0_linear_124_260)"/>
<defs>
<linearGradient id="paint0_linear_124_260" x1="30.0632" y1="5.07495" x2="30.0632" y2="55" gradientUnits="userSpaceOnUse">
<stop stop-color="#B89B4C"/>
<stop offset="0.5" stop-color="#D2B86A"/>
<stop offset="1" stop-color="#9A7E3E"/>
</linearGradient>
</defs>
</svg>
