<svg width="44" height="44" viewBox="0 0 44 44" fill="none" xmlns="http://www.w3.org/2000/svg">
<path d="M3.66666 40.3333V36.6667C3.66666 36.6667 12.8333 33 22 33C31.1667 33 40.3333 36.6667 40.3333 36.6667V40.3333H3.66666ZM20.7167 16.6833C18.5167 9.53333 7.33332 11.1833 7.33332 11.1833C7.33332 11.1833 7.69999 25.4833 18.15 23.2833C17.4167 17.9667 14.6667 16.5 14.6667 16.5C19.8 16.5 20.1667 22.7333 20.1667 22.7333V31.1667C20.7167 31.1667 21.45 31.1667 22 31.1667C22.55 31.1667 23.2833 31.1667 23.8333 31.1667V23.4667C23.8333 23.4667 23.8333 16.3167 29.3333 14.4833C29.3333 14.4833 25.6667 19.9833 25.6667 23.65C38.5 24.9333 38.5 7.33333 38.5 7.33333C38.5 7.33333 22.1833 5.5 20.7167 16.6833Z" fill="#599D85"/>
</svg>
