<svg width="44" height="44" viewBox="0 0 44 44" fill="none" xmlns="http://www.w3.org/2000/svg">
<path d="M31.1667 5.49996H38.5V9.16663H31.1667V5.49996ZM31.1667 12.8333H38.5V16.5H31.1667V12.8333ZM31.1667 20.1666H38.5V23.8333H32.5417L31.1667 22.1833V20.1666ZM38.5 27.5V31.1666H34.8333C34.8333 29.9016 34.65 28.655 34.3017 27.5H38.5ZM12.8333 5.49996V9.16663H5.5V5.49996H12.8333ZM12.8333 12.8333V16.5H5.5V12.8333H12.8333ZM12.8333 20.1666V22.1833L11.4583 23.8333H5.5V20.1666H12.8333ZM5.5 27.5H9.69833C9.35 28.655 9.16667 29.9016 9.16667 31.1666H5.5V27.5ZM27.5 23.8333V9.16663C27.5 6.12329 25.0433 3.66663 22 3.66663C18.9567 3.66663 16.5 6.12329 16.5 9.16663V23.8333C12.4483 26.8766 11.6233 32.615 14.6667 36.6666C17.71 40.7183 23.4483 41.5433 27.5 38.5C31.5517 35.4566 32.3767 29.7183 29.3333 25.6666C28.82 24.97 28.1967 24.3466 27.5 23.8333ZM22 7.33329C23.0083 7.33329 23.8333 8.15829 23.8333 9.16663V14.6666H20.1667V9.16663C20.1667 8.15829 20.9917 7.33329 22 7.33329Z" fill="#599D85"/>
</svg>
