<svg width="20" height="16" viewBox="0 0 20 16" fill="none" xmlns="http://www.w3.org/2000/svg">
<path d="M18 8V3H20V9H18M18 13H20V11H18M8 9C10.67 9 16 10.34 16 13V16H0V13C0 10.34 5.33 9 8 9ZM8 0C9.06087 0 10.0783 0.421427 10.8284 1.17157C11.5786 1.92172 12 2.93913 12 4C12 5.06087 11.5786 6.07828 10.8284 6.82843C10.0783 7.57857 9.06087 8 8 8C6.93913 8 5.92172 7.57857 5.17157 6.82843C4.42143 6.07828 4 5.06087 4 4C4 2.93913 4.42143 1.92172 5.17157 1.17157C5.92172 0.421427 6.93913 0 8 0ZM8 10.9C5.03 10.9 1.9 12.36 1.9 13V14.1H14.1V13C14.1 12.36 10.97 10.9 8 10.9ZM8 1.9C7.44305 1.9 6.9089 2.12125 6.51508 2.51508C6.12125 2.9089 5.9 3.44305 5.9 4C5.9 4.55695 6.12125 5.0911 6.51508 5.48492C6.9089 5.87875 7.44305 6.1 8 6.1C8.55695 6.1 9.0911 5.87875 9.48492 5.48492C9.87875 5.0911 10.1 4.55695 10.1 4C10.1 3.44305 9.87875 2.9089 9.48492 2.51508C9.0911 2.12125 8.55695 1.9 8 1.9Z" fill="#FFFDFD"/>
</svg>
