<svg width="25" height="24" viewBox="0 0 25 24" fill="none" xmlns="http://www.w3.org/2000/svg">
<path d="M19.2743 9V7C19.2743 5.35 17.9165 4 16.2568 4H8.21024C6.55063 4 5.19277 5.35 5.19277 7V9C3.53316 9 2.17529 10.35 2.17529 12V17C2.17529 18.65 3.53316 20 5.19277 20V22H7.20442V20H17.2627V22H19.2743V20C20.9339 20 22.2918 18.65 22.2918 17V12C22.2918 10.35 20.9339 9 19.2743 9ZM7.20442 7C7.20442 6.45 7.65704 6 8.21024 6H16.2568C16.8101 6 17.2627 6.45 17.2627 7V9.78C16.6491 10.33 16.2568 11.12 16.2568 12V14H8.21024V12C8.21024 11.12 7.81797 10.33 7.20442 9.78V7ZM20.2801 17C20.2801 17.55 19.8275 18 19.2743 18H5.19277C4.63956 18 4.18694 17.55 4.18694 17V12C4.18694 11.45 4.63956 11 5.19277 11C5.74597 11 6.19859 11.45 6.19859 12V16H18.2685V12C18.2685 11.45 18.7211 11 19.2743 11C19.8275 11 20.2801 11.45 20.2801 12V17Z" fill="white"/>
</svg>
