<svg width="25" height="25" viewBox="0 0 25 25" fill="none" xmlns="http://www.w3.org/2000/svg">
<path d="M23.7825 9.21751C23.5125 8.46751 23.0025 7.92751 22.3525 7.64751C21.1825 7.14751 19.7625 7.56751 18.6525 8.62751C18.7625 8.33751 18.8625 8.02751 18.9525 7.69751C19.2025 6.34751 18.9825 4.99751 18.3325 4.08751C17.9025 3.46751 17.2825 3.07751 16.5925 2.96751C15.0525 2.74751 13.5225 4.04751 12.8825 5.96751C12.2425 4.01751 10.6925 2.72751 9.1425 2.96751C8.4525 3.08751 7.8325 3.49751 7.4025 4.12751C6.7625 5.05751 6.5625 6.35751 6.8425 7.70751C6.8925 7.96751 6.9525 8.20751 7.0425 8.43751C5.9525 7.52751 4.6525 7.16751 3.5525 7.64751C2.8925 7.93751 2.3925 8.49751 2.1225 9.23751C1.7465 10.2775 1.8725 11.5475 2.4525 12.7375C3.2925 14.3675 4.7725 15.3775 6.1625 15.3775C6.5225 15.3775 6.8825 15.3075 7.2225 15.1675C7.8825 14.8775 8.3925 14.3175 8.6625 13.5975C8.9825 12.7575 8.9525 11.7375 8.5925 10.7275C9.1425 11.1575 9.7625 11.4175 10.4025 11.4175C10.5225 11.4175 10.6525 11.4075 10.7725 11.3875C11.4525 11.2875 12.0725 10.8875 12.5025 10.2675C12.6525 10.0475 12.7825 9.80751 12.8825 9.54751C12.9825 9.80751 13.1025 10.0475 13.2525 10.2575C13.6825 10.8775 14.3025 11.2775 14.9925 11.3875C15.1125 11.4075 15.2425 11.4175 15.3625 11.4175C16.0825 11.4175 16.7825 11.0875 17.3825 10.5375C16.9525 11.6075 16.9125 12.6975 17.2425 13.5975C17.5125 14.3275 18.0225 14.8775 18.6825 15.1675C19.0225 15.3075 19.3825 15.3775 19.7525 15.3775C21.1325 15.3775 22.6125 14.3675 23.4525 12.7375C24.0325 11.5475 24.1625 10.2675 23.7825 9.21751ZM6.7925 12.8975C6.6725 13.2275 6.4825 13.3075 6.4225 13.3275C5.8725 13.5675 4.8325 12.9675 4.2525 11.8375C3.8525 11.0275 3.8625 10.3175 4.0025 9.90751C4.0825 9.69751 4.2025 9.54751 4.3525 9.46751C4.4525 9.46751 4.5325 9.42751 4.6325 9.42751C5.2125 9.42751 6.0525 9.99751 6.5525 10.9675C6.8825 11.6475 6.9825 12.3975 6.7925 12.8975ZM10.8625 9.12751C10.7425 9.28751 10.6125 9.38751 10.4525 9.40751C9.9525 9.46751 9.0925 8.69751 8.8025 7.30751C8.6025 6.34751 8.8025 5.62751 9.0525 5.25751C9.1725 5.08751 9.3125 4.96751 9.4525 4.96751C9.9525 4.87751 10.8325 5.65751 11.1125 7.06751C11.3125 8.03751 11.1125 8.76751 10.8625 9.12751ZM16.9525 7.29751C16.6725 8.69751 15.7825 9.46751 15.2925 9.40751C15.2325 9.39751 15.0725 9.37751 14.8925 9.11751C14.6425 8.75751 14.4525 8.03751 14.6525 7.06751C14.9225 5.72751 15.7525 4.96751 16.2425 4.96751C16.2725 4.96751 16.2925 4.96751 16.3125 4.96751C16.4525 4.96751 16.5825 5.07751 16.7025 5.23751C17.0225 5.69751 17.1325 6.50751 16.9525 7.29751ZM21.6525 11.8375C21.0725 12.9675 20.0325 13.5675 19.4825 13.3275C19.4225 13.3075 19.2325 13.2275 19.1125 12.8975C18.9525 12.3975 19.0225 11.6475 19.3425 10.9675C19.8525 10.0075 20.7025 9.43751 21.2825 9.43751C21.3825 9.43751 21.4525 9.46751 21.5525 9.46751H21.5625C21.7125 9.54751 21.8225 9.68751 21.9025 9.90751C22.0525 10.3075 22.0625 11.0275 21.6525 11.8375ZM17.2525 15.4675C15.9025 14.0175 14.8425 11.4075 12.8425 11.4075C10.8325 11.4075 9.8325 14.0575 8.4225 15.4675C7.3625 16.5575 5.5725 17.3575 5.3925 18.8475C5.2625 19.9275 5.9525 21.2275 6.9525 21.7175C7.3025 21.8975 7.6725 21.9675 8.0525 21.9675C9.5625 21.9675 11.2525 20.8375 12.8425 20.8375C14.4525 20.8375 16.1325 21.9375 17.6625 21.9375C18.0325 21.9375 18.3925 21.8775 18.7425 21.7175C19.6025 21.3275 20.3225 20.2875 20.2825 19.3475C20.2125 17.7175 18.3625 16.6875 17.2525 15.4675ZM17.9125 19.8975C17.8725 19.9175 17.8025 19.9375 17.6625 19.9375C17.2425 19.9375 16.5825 19.7175 15.9525 19.5075C15.0325 19.1975 13.9825 18.8375 12.8425 18.8375C11.7025 18.8375 10.6525 19.2075 9.7325 19.5275C9.1025 19.7375 8.4525 19.9675 8.0525 19.9675C7.9225 19.9675 7.8725 19.9675 7.8325 19.9175C7.6125 19.8075 7.3525 19.3375 7.3825 19.0875C7.4525 18.8575 8.1825 18.2775 8.5425 17.9675C8.9825 17.6475 9.4525 17.2975 9.8425 16.8775C10.3925 16.3275 10.8425 15.6975 11.2825 15.0875C11.7325 14.4675 12.4825 13.4075 12.8425 13.4075C13.2425 13.4075 14.0325 14.5275 14.5125 15.1875C14.9025 15.7475 15.3125 16.3175 15.7725 16.8175C16.1625 17.2375 16.5725 17.6075 16.9525 17.9675C17.4925 18.4175 18.2725 19.1075 18.2825 19.4075C18.2725 19.5475 18.0725 19.8275 17.9125 19.8975Z" fill="white"/>
</svg>
