<svg width="25" height="25" viewBox="0 0 25 25" fill="none" xmlns="http://www.w3.org/2000/svg">
<path d="M17.3802 11.3806C15.3402 9.34056 15.1602 5.61056 15.1602 4.95056H13.6602V6.95056H9.66016V4.95056H7.66016C7.66016 3.85056 8.56016 2.95056 9.66016 2.95056H16.6602V3.95056C16.6602 4.03056 16.7002 8.58056 18.4402 10.3206L17.3802 11.3806ZM17.6602 2.95056V4.95056H18.6602V2.95056H17.6602ZM15.6602 12.9506C13.6602 10.9506 13.6602 7.95056 13.6602 7.95056H9.66016V9.95056C9.66016 10.9506 9.66016 10.9506 8.66016 11.9506C7.66016 12.9506 7.66016 13.9506 7.66016 13.9506V20.9506C7.66016 22.0506 8.56016 22.9506 9.66016 22.9506H13.6602C14.7602 22.9506 15.6602 22.0506 15.6602 20.9506V12.9506Z" fill="white"/>
</svg>
