<svg width="44" height="44" viewBox="0 0 44 44" fill="none" xmlns="http://www.w3.org/2000/svg">
<path d="M34.1 12.1367C31.46 12.1367 28.9667 13.1633 27.1883 14.9417L14.3 26.3817C13.1267 27.555 11.5683 28.1967 9.9 28.1967C6.47167 28.1967 3.66667 25.4283 3.66667 22C3.66667 18.5717 6.47167 15.8033 9.9 15.8033C11.5683 15.8033 13.1267 16.445 14.3733 17.6917L16.445 19.525L19.25 17.0683L16.9033 15.0333C15.0333 13.1633 12.54 12.1367 9.9 12.1367C4.43667 12.1367 0 16.5733 0 22C0 27.4267 4.43667 31.8633 9.9 31.8633C12.54 31.8633 15.0333 30.8367 16.8117 29.0583L29.7 17.6183C30.8733 16.445 32.4317 15.8033 34.1 15.8033C37.5283 15.8033 40.3333 18.5717 40.3333 22C40.3333 25.4283 37.5283 28.1967 34.1 28.1967C32.45 28.1967 30.8733 27.555 29.6267 26.3083L27.5 24.4567L24.75 26.9133L27.0967 28.9667C28.9667 30.8183 31.4417 31.845 34.1 31.845C39.5633 31.845 44 27.4267 44 22C44 16.5 39.5633 12.1367 34.1 12.1367Z" fill="#599D85"/>
</svg>
