<svg width="44" height="44" viewBox="0 0 44 44" fill="none" xmlns="http://www.w3.org/2000/svg">
<path d="M38.5 22C38.5 18.2784 37.2716 14.8317 34.8333 11.6967V32.3217C37.2716 29.2784 38.5 25.8317 38.5 22ZM32.3216 34.8334H11.6966C12.9433 35.8417 14.575 36.6667 16.5916 37.4184C18.59 38.1334 20.405 38.5 22 38.5C23.6133 38.5 25.41 38.1334 27.4083 37.4184C29.425 36.6667 31.0566 35.8417 32.3216 34.8334ZM20.1666 31.1667L12.8333 16.5V31.1667H20.1666ZM31.1666 16.5L23.8333 31.1667H31.1666V16.5ZM22 26.6384L28.875 12.8334H15.125L22 26.6384ZM32.3216 9.16671C29.2783 6.72837 25.8316 5.50004 22 5.50004C18.1683 5.50004 14.7216 6.72837 11.6966 9.16671H32.3216ZM9.16665 32.3217V11.6967C6.72831 14.8317 5.49998 18.2784 5.49998 22C5.49998 25.8317 6.72831 29.2784 9.16665 32.3217ZM42.1666 22C42.1666 27.555 40.2233 32.3217 36.2633 36.2634C32.3216 40.2234 27.555 42.1667 22 42.1667C16.445 42.1667 11.6966 40.2234 7.73665 36.2634C3.77665 32.3217 1.83331 27.555 1.83331 22C1.83331 16.445 3.77665 11.6967 7.73665 7.73671C11.6966 3.77671 16.445 1.83337 22 1.83337C27.555 1.83337 32.3216 3.77671 36.2633 7.73671C40.2233 11.6967 42.1666 16.445 42.1666 22Z" fill="#599D85"/>
</svg>
