<svg width="23" height="24" viewBox="0 0 23 24" fill="none" xmlns="http://www.w3.org/2000/svg">
<path d="M20.4444 21.3333H2.55556V2.66667H20.4444M20.4444 0H2.55556C1.87778 0 1.22776 0.280951 0.748505 0.781048C0.269245 1.28115 0 1.95942 0 2.66667V21.3333C0 22.0406 0.269245 22.7189 0.748505 23.219C1.22776 23.719 1.87778 24 2.55556 24H20.4444C21.1222 24 21.7722 23.719 22.2515 23.219C22.7308 22.7189 23 22.0406 23 21.3333V2.66667C23 1.18667 21.85 0 20.4444 0ZM10.2222 16H12.7778V18.6667H10.2222V16ZM10.2222 5.33333H12.7778V13.3333H10.2222V5.33333Z" fill="white"/>
</svg>
